inDegrees=yes
name=ik_greeting_orientation
DataType=double
version=3
OpenSimVersion=4.5
endheader
time	pelvis_tilt	pelvis_list	pelvis_rotation	pelvis_tx	pelvis_ty	pelvis_tz	hip_flexion_r	hip_adduction_r	hip_rotation_r	knee_angle_r	knee_angle_r_beta	ankle_angle_r	subtalar_angle_r	mtp_angle_r	hip_flexion_l	hip_adduction_l	hip_rotation_l	knee_angle_l	knee_angle_l_beta	ankle_angle_l	subtalar_angle_l	mtp_angle_l	lumbar_extension	lumbar_bending	lumbar_rotation	arm_flex_r	arm_add_r	arm_rot_r	elbow_flex_r	pro_sup_r	wrist_flex_r	wrist_dev_r	arm_flex_l	arm_add_l	arm_rot_l	elbow_flex_l	pro_sup_l	wrist_flex_l	wrist_dev_l
1.423076923076922	-14.69182528820534	2.945596868997658	90.91639327832111	0	0.93	0	-2.842969936893637	-14.42981079129151	-1.321328449383326	0.4602179438425101	0.008032318396810165	-4.096102433443183	0	0	-1.189286104174131	15.90871277062858	-6.489531707434545	3.171407563072953	0.05535150389827277	-4.0961024333755	0	0	0	0	0	0	0	88.14427758321631	5.292575808130893e-40	0	0	0	0	0	89.18737008663427	5.293806999553189e-39	1.574957199270643e-38	0	0
1.442307692307692	-12.44173419996795	3.060568435275243	94.96627075648745	0	0.93	0	-4.049333745761461	-12.0135391577061	-5.489462054451793	0.5509864303677962	0.009616527343728514	-4.115280055447089	1.446237010812096e-18	6.520533382283483e-18	-2.438271844654404	12.7390284506287	1.761647661602693	2.320170443158082	0.04049461344056448	-4.115280055383366	5.647141829743614e-17	1.692598387123875e-16	-7.192665490348307e-28	4.331141198401719e-22	-4.827383453393591e-27	-1.679834351419619e-21	-2.4350352611192e-21	89.98576067745877	0	9.822308435220731e-15	1.961665581561291e-22	-2.106666695800247e-24	9.175105615292886e-16	2.975401597252766e-16	89.94666997339718	0	0	-7.281959302873828e-23	-5.600087576282975e-24
1.461538461538461	-11.39555368765072	6.752348482361882	99.75586582805241	0	0.93	0	-8.247078387126736	-9.868193443807749	-10.36703145110538	0.7726272601389749	0.01348488958008785	-4.129364670790138	0	0	-6.606267268161357	10.70416813235065	3.87942940380268	3.169853054108281	0.05532437259858747	-4.129364670727433	0	0	0	0	0	0	0	89.99338361099198	5.779049626681181e-39	1.85015496108537e-38	0	0	0	0	89.97526190195953	0	1.80465514375577e-38	0	0
1.48076923076923	-1.953570298468745	10.16412398985452	91.6310969635212	0	0.93	0	-9.836832476495541	-1.343992381859035	0.01481667367985229	0.5918689613737734	0.01033006211633149	-4.150986405453877	0	0	-9.707992968799477	1.501776523060223	-0.8230612798085103	1.516639892518757	0.02647035969154523	-4.150986405392727	0	0	0	0	0	0	0	89.94641545075832	0	0	0	0	0	0	89.75857474646213	1.052357267868557e-38	1.420619033653403e-39	0	0
1.499999999999999	-3.078345135481805	11.8951382761441	93.20365276095856	0	0.93	0	-11.88869072239268	-1.797348117078926	-2.503030126460831	0.4773412106393358	0.008331175781112195	-4.158833183219013	0	0	-12.17742327043779	2.958505620239964	-3.176512635547319	1.822492252366404	0.03180849039588117	-4.158833183157664	0	0	0	0	0	0	0	89.97835734050234	0	0	0	0	0	0	89.91430249043496	0	0	0	0
1.519230769230768	-3.846978632448178	-11.11231336107947	89.72550802305985	0	0.93	0	11.00329816306452	-3.281102427155637	-0.1137971291164824	0.5254833434127361	0.0091714145069403	-4.530150842438734	0	0	10.80585464816942	4.99577557590862	-7.260833569987784	1.818278887182603	0.03173495330083494	-4.530150842405177	0	0	0	0	0	0	0	68.45968655533329	0	0	0	0	0	0	89.63772245592143	0	5.512000393678043e-39	0	0
1.538461538461537	-6.462321913215002	-10.20409020588805	89.95039004879669	0	0.93	0	9.951135351984215	-6.475989607459752	-0.4585194934267408	0.5016581779967296	0.008755586925598703	-4.542793052164094	0	0	9.406855552432635	6.885341049924312	0.0902515196154136	0.4143159665439125	0.007231177759773944	-4.542793052131436	0	0	0	0	0	0	0	66.32969974612291	0	0	0	0	0	0	89.45542452549161	0	0	0	0
1.557692307692307	-4.72859022105802	-8.731413859937959	90.45745690916021	0	0.93	0	8.307533507878562	-5.348648196582046	0.2528869207907136	0.3666041149187867	0.006398448856692492	-4.549720832927566	0	0	8.081801046290394	5.461823965585278	-2.22382117648183	0.8571618658203308	0.01496029678110262	-4.549720832895402	0	0	0	0	0	0	0	89.84383323606828	0	0	0	0	0	0	89.65646956277742	0	0	0	0
1.576923076923076	-5.093404290447855	-10.6379749163048	90.99568363625536	0	0.93	0	10.31413907780183	-5.983262825667508	0.2824565096170893	0.5580579332965654	0.009739948352899959	-4.555126904495836	0	0	10.34375404585304	5.928743156083101	-4.938891520513138	1.751351358875016	0.03056684757164584	-4.555126904465597	0	0	0	0	0	0	0	89.94904761198814	0	0	0	0	0	0	89.85360544816673	1.597929280255314e-40	0	0	0
1.596153846153845	-11.68985420105938	-3.66472128981956	90.12989239208147	0	0.93	-3.569611003547809e-33	3.66059859702138	-12.06297103590499	0.4154394050835283	0.5936259674729404	0.01036072765773957	-4.566206013456987	-4.180435487334712e-15	-1.683420280567259e-16	4.059744184117161	12.53849600669554	-7.751711599474981	2.321196671954896	0.04051252451194766	-4.566206013425908	3.987933362814971e-15	1.094759244319633e-15	3.200654854266894e-25	-1.710634402366061e-21	5.288290597492609e-25	-2.451609199449149e-16	-1.088580072654004e-16	89.22123570117667	5.21805428875001e-15	0	3.281406952214331e-22	-1.966662362024387e-22	-5.412713937027309e-14	1.025096949694522e-13	89.65548696455799	0	0	1.647946185211916e-22	3.476018150686373e-22
1.615384615384614	-14.62260701786867	0.7705825575746124	90.56601229027369	0	0.93	0	-0.6469638690183681	-14.76838204967443	0.8470423344104678	0.4723596640020654	0.008244231390450177	-4.579314127140109	0	0	-0.5120680512259959	14.62528298796775	-0.5651656491443456	1.001496788583405	0.01747941640892996	-4.579314127115655	0	0	0	0	0	0	0	81.23682329973644	2.175786657881174e-45	4.155556499737017e-45	0	0	0	0	89.48015314906772	2.744235424354634e-46	7.84067264101324e-47	0	0
1.634615384615383	-15.75953114404217	4.145184011940596	90.96914873578294	0	0.93	0	-3.87965698166746	-15.48202128796514	-0.3316042236103743	0.7352255442732593	0.01283210649233571	-4.595068837031658	0	0	-3.205135396888523	15.25778736462205	-1.560419436128808	1.731827981893613	0.03022610036221229	-4.595068837008169	0	0	0	0	0	0	0	71.81825646728933	1.061719933659364e-38	0	0	0	0	0	89.26091769337351	0	0	0	0
1.653846153846152	-14.94101828712281	7.78919561742955	91.190101991752	0	0.93	0	-7.651355184289391	-14.47529025507205	-0.003522887499112714	0.4944256131119457	0.0086293548549951	-4.617044714124809	0	0	-6.052967800384259	14.54212542291565	-3.086776627855012	2.628286662957143	0.04587225595485662	-4.617044714102595	0	0	0	0	0	0	0	57.64692900494787	0	0	0	0	0	0	89.16720269220036	1.952224353331812e-45	1.499528642593782e-45	0	0
